HIERARCHY
ROOT Hips
{
	OFFSET -0.001795 -0.223333 0.028219
	CHANNELS 6 Xposition Yposition Zposition Zrotation Yrotation Xrotation 
	JOINT LeftUpLeg
	{
		OFFSET 0.069520 -0.091406 -0.006815
		CHANNELS 3 Zrotation Yrotation Xrotation
		JOINT LeftLeg
		{
			OFFSET 0.034277 -0.375199 -0.004496
			CHANNELS 3 Zrotation Yrotation Xrotation
			JOINT LeftFoot
			{
				OFFSET -0.013596 -0.397961 -0.043693
				CHANNELS 3 Zrotation Yrotation Xrotation
				JOINT LeftToe
				{
					OFFSET 0.026358 -0.055791 0.119288
					CHANNELS 3 Zrotation Yrotation Xrotation
					End Site
					{
						OFFSET 0.000000 0.000000 0.000000
					}
				}
			}
		}
	}
	JOINT RightUpLeg
	{
		OFFSET -0.067670 -0.090522 -0.004320
		CHANNELS 3 Zrotation Yrotation Xrotation
		JOINT RightLeg
		{
			OFFSET -0.038290 -0.382569 -0.008850
			CHANNELS 3 Zrotation Yrotation Xrotation
			JOINT RightFoot
			{
				OFFSET 0.015774 -0.398415 -0.042312
				CHANNELS 3 Zrotation Yrotation Xrotation
				JOINT RightToe
				{
					OFFSET -0.025372 -0.048144 0.123348
					CHANNELS 3 Zrotation Yrotation Xrotation
					End Site
					{
						OFFSET 0.000000 0.000000 0.000000
					}
				}
			}
		}
	}
	JOINT Spine
	{
		OFFSET -0.002533 0.108963 -0.026696
		CHANNELS 3 Zrotation Yrotation Xrotation
		JOINT Spine1
		{
			OFFSET 0.005487 0.135180 0.001092
			CHANNELS 3 Zrotation Yrotation Xrotation
			JOINT Spine2
			{
				OFFSET 0.001457 0.052922 0.025425
				CHANNELS 3 Zrotation Yrotation Xrotation
				JOINT Neck
				{
					OFFSET -0.002778 0.213870 -0.042857
					CHANNELS 3 Zrotation Yrotation Xrotation
					JOINT Head
					{
						OFFSET 0.005152 0.064970 0.051349
						CHANNELS 3 Zrotation Yrotation Xrotation
						End Site
						{
							OFFSET 0.000000 0.000000 0.000000
						}
					}
				}
				JOINT LeftShoulder
				{
					OFFSET 0.078845 0.121749 -0.034090
					CHANNELS 3 Zrotation Yrotation Xrotation
					JOINT LeftArm
					{
						OFFSET 0.090977 0.030469 -0.008868
						CHANNELS 3 Zrotation Yrotation Xrotation
						JOINT LeftForeArm
						{
							OFFSET 0.259612 -0.012772 -0.027456
							CHANNELS 3 Zrotation Yrotation Xrotation
							JOINT LeftHand
							{
								OFFSET 0.249234 0.008986 -0.001171
								CHANNELS 3 Zrotation Yrotation Xrotation
								End Site
								{
									OFFSET 0.000000 0.000000 0.000000
								}
							}
						}
					}
				}
				JOINT RightShoulder
				{
					OFFSET -0.081759 0.118833 -0.038615
					CHANNELS 3 Zrotation Yrotation Xrotation
					JOINT RightArm
					{
						OFFSET -0.096012 0.032551 -0.009143
						CHANNELS 3 Zrotation Yrotation Xrotation
						JOINT RightForeArm
						{
							OFFSET -0.253742 -0.013329 -0.021401
							CHANNELS 3 Zrotation Yrotation Xrotation
							JOINT RightHand
							{
								OFFSET -0.255298 0.007772 -0.005559
								CHANNELS 3 Zrotation Yrotation Xrotation
								End Site
								{
									OFFSET 0.000000 0.000000 0.000000
								}
							}
						}
					}
				}
			}
		}
	}
}
MOTION
Frames: 16
Frame Time: 0.050000
0.000000 0.915311 0.000000 -1.808048 2.212065 0.597809 7.304194 -0.584502 -15.175920 -10.968878 2.913141 30.821473 1.575160 4.592870 3.166896 0.000000 0.000000 0.000000 -3.296504 1.167810 -15.943160 -1.931485 1.527994 25.436478 -17.910089 -33.935149 19.799894 0.000000 0.000000 0.000000 -0.186746 -0.215691 5.410755 -1.105484 0.482579 1.886204 -0.460688 0.367717 5.430850 1.471388 -0.952348 -2.157361 0.000000 0.000000 0.000000 -0.744454 -11.724337 3.950314 -14.763668 -16.803372 -0.373919 143.989983 -47.362247 -101.057075 0.000000 0.000000 0.000000 -2.467624 9.144162 3.125386 19.938948 10.628917 -0.668860 -142.395682 53.480433 -103.370098 0.000000 0.000000 0.000000 
0.002564 0.915293 0.002686 -2.138927 2.135679 0.752131 7.749486 -0.521155 -14.707604 -11.373969 3.034943 30.078346 1.625203 4.504293 2.670221 0.000000 0.000000 0.000000 -2.800523 1.136791 -14.602439 -2.510496 1.603544 23.130286 -17.799081 -33.959998 19.186683 0.000000 0.000000 0.000000 -0.326402 -0.172059 4.518841 -1.918532 0.878150 2.474713 1.515308 0.524150 5.393428 -0.366603 0.284577 0.312077 0.000000 0.000000 0.000000 -1.904654 -11.205464 3.792796 -14.757044 -18.970961 -0.217110 142.094737 -46.556299 -96.852297 0.000000 0.000000 0.000000 -2.702965 8.180644 2.809400 19.345620 10.198907 -0.710144 -153.745411 53.350772 -121.362458 0.000000 0.000000 0.000000 
0.004960 0.914971 0.004263 -1.885650 2.733730 0.555914 6.899599 -0.619424 -14.494264 -10.663959 2.687841 30.236021 1.523547 4.188029 2.334503 0.000000 0.000000 0.000000 -3.657292 1.063425 -15.176212 -1.709729 1.385503 24.863251 -18.128816 -34.148799 20.039042 0.000000 0.000000 0.000000 -0.077090 -0.191581 4.679236 -0.619793 0.232179 2.011573 -0.600948 0.688010 6.233257 0.854624 -0.721157 0.369126 0.000000 0.000000 0.000000 -3.717829 -12.050154 4.059593 -13.321053 -20.132274 -0.224297 137.734760 -45.564013 -89.791284 0.000000 0.000000 0.000000 0.034334 9.913068 3.476235 16.801098 8.003630 -0.969875 -155.521359 52.455396 -122.889018 0.000000 0.000000 0.000000 
0.006547 0.915315 0.005340 -1.866382 3.648962 0.290215 6.197837 -0.721866 -14.677087 -9.639482 2.199562 31.027984 1.249927 3.713131 2.459722 0.000000 0.000000 0.000000 -4.219847 0.960880 -14.960834 -0.892919 1.056214 25.379638 -18.615103 -34.538050 20.868382 0.000000 0.000000 0.000000 0.078830 -0.172510 4.052913 -0.938117 0.367887 2.525981 0.123527 -1.252360 6.722792 -0.416643 0.328377 0.157120 0.000000 0.000000 0.000000 -3.934567 -11.683770 4.056555 -13.755145 -20.214170 -0.252041 133.343087 -44.418106 -81.315550 0.000000 0.000000 0.000000 -1.598367 10.476754 3.578579 16.927165 9.336310 -0.805242 -157.687886 54.903911 -130.509683 0.000000 0.000000 0.000000 
0.007164 0.914689 0.006080 -1.895038 3.717732 -0.070372 6.244955 -0.695630 -14.263179 -9.719759 2.217435 31.097048 1.238618 3.598780 2.235707 0.000000 0.000000 0.000000 -4.728936 0.889220 -14.862645 -0.045624 0.770496 25.979736 -18.629476 -34.562329 20.815591 0.000000 0.000000 0.000000 -0.080771 -0.172079 4.210935 -0.743738 0.276148 2.335650 0.273868 -1.196469 6.790594 -0.627870 0.450861 0.871775 0.000000 0.000000 0.000000 -4.409119 -12.942543 4.547127 -12.649855 -20.450054 -0.308193 126.080484 -42.543349 -70.084255 0.000000 0.000000 0.000000 -1.086171 11.559712 3.957603 15.387319 9.482898 -0.772629 -161.356866 56.531477 -138.410042 0.000000 0.000000 0.000000 
0.006979 0.915198 0.007001 -1.951007 3.613554 0.036678 6.218258 -0.679731 -13.894385 -9.558046 2.149790 30.432131 1.322141 3.634558 1.922554 0.000000 0.000000 0.000000 -4.826008 0.876675 -14.748887 0.236998 0.672966 25.624792 -18.565893 -34.518545 20.694573 0.000000 0.000000 0.000000 0.231683 -0.158713 3.606128 -0.837475 0.327101 2.255226 0.563300 -1.575094 6.753155 -0.882153 0.655032 0.948834 0.000000 0.000000 0.000000 -3.513289 -13.505326 4.768378 -12.158116 -20.217328 -0.363104 118.976291 -39.870757 -58.854006 0.000000 0.000000 0.000000 -2.622099 12.460112 4.185693 14.800503 11.278332 -0.612708 -164.712895 58.350583 -145.989948 0.000000 0.000000 0.000000 
0.006175 0.917458 0.008846 -1.854678 3.364162 -0.008878 6.091865 -0.648363 -13.079814 -9.426438 2.097631 29.373409 1.297746 3.695446 2.201654 0.000000 0.000000 0.000000 -4.932490 0.833061 -14.001591 0.325255 0.639779 24.509153 -18.358386 -34.283777 20.571717 0.000000 0.000000 0.000000 0.522706 -0.156965 3.334062 -1.128411 0.489251 1.808003 0.668563 -1.383809 6.680446 -0.264545 0.177506 0.417648 0.000000 0.000000 0.000000 -2.914668 -13.133823 4.597558 -11.014389 -20.546836 -0.416478 112.159753 -37.696317 -50.115882 0.000000 0.000000 0.000000 -3.537299 12.459457 4.144255 13.323179 12.602985 -0.531494 -167.277082 58.343313 -150.461413 0.000000 0.000000 0.000000 
0.004919 0.920595 0.012024 -1.799503 3.397996 0.407308 6.015191 -0.628368 -12.359537 -9.192349 1.958037 27.690903 1.170036 3.540495 2.441100 0.000000 0.000000 0.000000 -5.306765 0.754378 -13.084509 1.008643 0.375587 22.425834 -18.312768 -34.256467 20.493361 0.000000 0.000000 0.000000 0.518552 -0.112730 2.374137 -0.949474 0.423136 1.024329 0.625516 -1.366302 6.178791 0.503087 -0.361083 -0.704580 0.000000 0.000000 0.000000 -1.400721 -12.155853 4.180208 -10.635770 -19.851183 -0.452623 106.969261 -34.700423 -42.556709 0.000000 0.000000 0.000000 -5.152194 11.929311 3.920899 12.471718 13.762186 -0.466482 -166.009909 57.866738 -147.851003 0.000000 0.000000 0.000000 
0.002772 0.924065 0.016259 -1.779573 3.602717 1.002854 5.782935 -0.613920 -11.399439 -8.504831 1.640098 25.378138 1.042905 3.279246 2.407349 0.000000 0.000000 0.000000 -5.162460 0.716212 -11.908202 1.018722 0.318183 19.725761 -18.393103 -34.348233 20.594217 0.000000 0.000000 0.000000 0.733412 -0.063557 1.176102 -0.977381 0.466650 -0.031064 0.780246 -1.624909 5.924813 0.735707 -0.529436 -0.968398 0.000000 0.000000 0.000000 -0.554420 -9.633383 3.283654 -10.051703 -19.475334 -0.499747 102.638137 -33.432903 -38.142398 0.000000 0.000000 0.000000 -6.208699 10.769064 3.558591 11.839800 15.104382 -0.410594 -161.512167 56.855373 -139.337121 0.000000 0.000000 0.000000 
-0.000572 0.927618 0.020859 -1.596713 3.925643 1.505970 5.559113 -0.599774 -10.532057 -7.946347 1.390727 23.359100 0.764996 2.920557 2.839474 0.000000 0.000000 0.000000 -5.237557 0.647151 -10.595741 1.258124 0.196680 17.033380 -18.533817 -34.497775 20.760163 0.000000 0.000000 0.000000 0.287525 -0.004091 -0.000216 -0.608265 0.302066 -0.398814 0.957523 -1.803932 5.073902 0.912174 -0.640584 -1.268371 0.000000 0.000000 0.000000 0.885120 -7.548645 2.578787 -9.600518 -18.853249 -0.521043 99.109685 -32.848303 -35.325891 0.000000 0.000000 0.000000 -7.155282 9.688234 3.250186 11.309297 16.637416 -0.339463 -155.826218 55.106818 -127.961510 0.000000 0.000000 0.000000 
-0.004961 0.931540 0.024737 -1.765740 4.783643 1.799701 5.828624 -0.566700 -9.813505 -7.318219 1.109280 21.710389 0.219081 2.154678 3.468515 0.000000 0.000000 0.000000 -4.909922 0.588202 -9.120147 1.681647 0.026811 14.435217 -19.000176 -34.888417 21.544291 0.000000 0.000000 0.000000 0.032805 0.039594 -1.039379 -0.134858 0.110458 -1.158501 0.896426 -1.797088 4.900210 1.487451 -1.127458 -0.915269 0.000000 0.000000 0.000000 2.597452 -5.538225 1.974458 -9.317833 -19.359388 -0.510730 97.823385 -33.506251 -35.542582 0.000000 0.000000 0.000000 -7.450250 8.280037 2.832700 10.826437 17.797532 -0.318868 -148.311325 53.696856 -113.636850 0.000000 0.000000 0.000000 
-0.009782 0.935067 0.027155 -1.839471 5.433216 1.750691 6.102377 -0.524297 -8.968920 -6.874526 0.927559 20.348627 -0.290416 1.538797 4.214790 0.000000 0.000000 0.000000 -4.436233 0.546524 -7.955130 1.696793 -0.009720 12.813679 -19.353226 -35.112334 22.342221 0.000000 0.000000 0.000000 -0.236511 0.064447 -1.717424 0.336623 -0.105201 -1.188015 0.909914 -1.493509 4.482072 1.621192 -1.184216 -1.243030 0.000000 0.000000 0.000000 4.674178 -3.920810 1.608453 -8.800811 -19.824665 -0.512060 96.100054 -35.871379 -37.368394 0.000000 0.000000 0.000000 -8.851239 7.455509 2.567172 10.605492 18.339277 -0.296584 -142.329456 51.384663 -100.959063 0.000000 0.000000 0.000000 
-0.014114 0.938404 0.027639 -2.059524 6.326953 1.922606 6.428325 -0.513716 -8.660943 -6.282396 0.711923 19.179147 -0.847226 0.838934 4.881030 0.000000 0.000000 0.000000 -4.048601 0.508379 -7.054972 2.095944 -0.133108 11.018339 -19.859798 -35.455240 23.351648 0.000000 0.000000 0.000000 -0.507602 0.076884 -2.155554 0.842795 -0.301864 -1.824649 0.985100 -1.087168 4.792171 1.882800 -1.324591 -1.695160 0.000000 0.000000 0.000000 6.668725 -3.009442 1.534690 -7.702503 -20.186239 -0.587320 97.083974 -39.006437 -41.802311 0.000000 0.000000 0.000000 -9.764364 6.437770 2.218752 9.344040 19.120363 -0.365521 -136.633617 50.632734 -91.119585 0.000000 0.000000 0.000000 
-0.017289 0.940599 0.026411 -2.133637 7.406340 2.136176 6.572163 -0.533815 -8.787863 -5.784419 0.528387 18.472381 -1.415803 0.054464 5.345151 0.000000 0.000000 0.000000 -3.814052 0.501603 -6.875598 1.515264 -0.031875 10.662215 -18.983440 -34.081313 23.862026 0.000000 0.000000 0.000000 -0.714360 0.078466 -2.293842 1.139757 -0.402779 -2.306295 1.032453 -0.777263 4.771002 2.017182 -1.358387 -2.102847 0.000000 0.000000 0.000000 8.875792 -3.078947 1.799919 -6.139964 -20.766322 -0.704409 99.041155 -41.905763 -46.809568 0.000000 0.000000 0.000000 -11.557461 5.889271 1.984898 8.370521 18.549253 -0.440396 -131.991897 49.893734 -83.234673 0.000000 0.000000 0.000000 
-0.019162 0.942358 0.024058 -2.220520 8.264278 2.095984 6.532322 -0.557925 -9.011258 -5.190858 0.334744 18.353813 -1.865173 -0.518062 5.764318 0.000000 0.000000 0.000000 -3.647584 0.491284 -6.700568 0.601396 0.146835 10.405608 -17.868419 -32.233286 24.904351 0.000000 0.000000 0.000000 -0.705801 0.064695 -1.856299 1.295159 -0.440690 -2.720681 1.301503 -0.909046 4.904478 1.895254 -1.174161 -2.746954 0.000000 0.000000 0.000000 11.022345 -2.671212 1.913088 -4.356134 -21.915901 -0.881266 102.515864 -43.130131 -51.000823 0.000000 0.000000 0.000000 -13.444503 5.752457 1.899272 6.852366 18.557498 -0.535990 -130.122475 48.429462 -78.603440 0.000000 0.000000 0.000000 
-0.020036 0.943398 0.021481 -2.137600 9.013833 2.290806 6.299599 -0.589652 -9.214111 -4.727347 0.195444 17.839418 -2.213695 -1.039104 5.919336 0.000000 0.000000 0.000000 -3.759525 0.482081 -6.734850 -1.164647 0.506558 10.135690 -15.265981 -28.417357 25.871168 0.000000 0.000000 0.000000 -1.017398 0.068005 -2.057157 1.477502 -0.526831 -2.587258 1.572978 -1.401997 4.957498 1.317525 -0.759737 -2.502726 0.000000 0.000000 0.000000 13.256898 -3.046777 2.162146 -2.375062 -23.554176 -1.134369 105.383114 -42.538953 -52.548570 0.000000 0.000000 0.000000 -15.014244 6.016667 1.958644 6.052319 19.073149 -0.583384 -130.308091 47.534361 -77.630918 0.000000 0.000000 0.000000 
